<svg width="75" height="75" viewBox="0 0 75 75" fill="none" xmlns="http://www.w3.org/2000/svg">
<circle cx="37.5" cy="37.5" r="37.5" fill="#FEEBF7"/>
<path d="M50.0947 31.7476C49.2751 24.7507 43.1395 19.6079 36.107 20.0235C29.0745 20.4391 23.5873 26.2687 23.5977 33.3135C23.5977 36.1534 24.4632 38.4497 26.4915 40.993C29.0991 44.1521 30.5469 48.1084 30.5943 52.2044V56.4024C30.5975 57.3625 31.2519 58.1981 32.1832 58.4314C32.7754 60.5417 34.6994 62.0001 36.8913 62.0001C39.083 62.0001 41.007 60.5417 41.5993 58.4314C42.5307 58.1981 43.185 57.3626 43.1882 56.4024V52.1939C43.2357 48.1037 44.6824 44.153 47.2876 40.9993C49.4919 38.4525 50.5122 35.0899 50.0947 31.7476ZM41.7889 52.1939V53.6038H31.9936V52.2044C31.9936 51.97 31.9719 51.7384 31.9629 51.5048H41.8198C41.8106 51.7349 41.7889 51.9637 41.7889 52.1939ZM36.8913 60.6004C35.5026 60.6031 34.2462 59.7773 33.698 58.5014H40.0845C39.5363 59.7772 38.2799 60.6031 36.8913 60.6004ZM41.7889 56.4024C41.7889 56.7888 41.4756 57.102 41.0892 57.102H32.6933C32.3068 57.102 31.9936 56.7888 31.9936 56.4024V55.003H41.789V56.4024H41.7889ZM41.9288 50.1054H31.8537C31.3983 46.4418 29.919 42.9808 27.5858 40.1198C25.747 37.8151 24.997 35.8428 24.997 33.3135C24.9999 29.933 26.4384 26.7128 28.9544 24.455C31.4765 22.1766 34.8589 21.0969 38.2347 21.4926C43.7138 22.124 48.0444 26.4315 48.7051 31.9072C49.0864 34.8789 48.1729 37.8712 46.1968 40.1233C43.8625 42.9823 42.383 46.4425 41.9288 50.1054Z" fill="#F514A0"/>
<path d="M18 32.6137C18 33.0001 18.3133 33.3133 18.6996 33.3133H20.7986C21.1851 33.3133 21.4983 33 21.4983 32.6137C21.4983 32.2273 21.185 31.9141 20.7986 31.9141H18.6996C18.3132 31.9141 18 32.2273 18 32.6137Z" fill="#F514A0"/>
<path d="M52.2832 32.6137C52.2832 33.0001 52.5964 33.3133 52.9828 33.3133H55.0818C55.4683 33.3133 55.7815 33 55.7815 32.6137C55.7815 32.2273 55.4683 31.9141 55.0818 31.9141H52.9828C52.5965 31.9141 52.2832 32.2273 52.2832 32.6137Z" fill="#F514A0"/>
<path d="M22.3234 39.0062L20.5043 40.0557C20.286 40.1798 20.151 40.4113 20.1504 40.6624C20.1498 40.9134 20.2839 41.1456 20.5016 41.2706C20.7193 41.3956 20.9873 41.3945 21.2039 41.2675L23.0231 40.218C23.2413 40.0939 23.3764 39.8624 23.3769 39.6113C23.3775 39.3603 23.2435 39.1282 23.0258 39.0031C22.8081 38.8781 22.54 38.8792 22.3234 39.0062Z" fill="#F514A0"/>
<path d="M52.5773 23.9626L50.7582 25.0121C50.5399 25.1362 50.4049 25.3677 50.4043 25.6188C50.4037 25.8698 50.5378 26.102 50.7555 26.227C50.9732 26.352 51.2412 26.3509 51.4578 26.2239L53.277 25.1744C53.6088 24.9799 53.7214 24.554 53.529 24.221C53.3367 23.8879 52.9117 23.7726 52.5773 23.9626Z" fill="#F514A0"/>
<path d="M50.7581 40.218L52.5772 41.2675C52.9116 41.4575 53.3367 41.3422 53.529 41.0091C53.7213 40.6761 53.6087 40.2502 53.277 40.0557L51.4578 39.0062C51.2412 38.8792 50.9732 38.8781 50.7555 39.0031C50.5378 39.1282 50.4037 39.3603 50.4043 39.6113C50.4048 39.8624 50.5398 40.0939 50.7581 40.218Z" fill="#F514A0"/>
<path d="M23.0231 25.0128L21.2039 23.9633C20.9873 23.8363 20.7193 23.8351 20.5016 23.9602C20.2839 24.0852 20.1498 24.3173 20.1504 24.5684C20.151 24.8194 20.286 25.051 20.5043 25.175L22.3234 26.2245C22.4297 26.2862 22.5504 26.3186 22.6733 26.3182C22.9899 26.3182 23.2671 26.1056 23.3491 25.7996C23.431 25.4939 23.2973 25.1711 23.0231 25.0128Z" fill="#F514A0"/>
<path d="M37.5673 16.0606L37.5666 13.9604C37.5683 13.7093 37.4353 13.4766 37.2181 13.3506C37.001 13.2246 36.7329 13.2246 36.5158 13.3506C36.2987 13.4766 36.1657 13.7093 36.1674 13.9604L36.1681 16.0606C36.1678 16.1834 36.2001 16.3041 36.2618 16.4104C36.4201 16.6846 36.7429 16.8184 37.0488 16.7364C37.3546 16.6544 37.5673 16.3773 37.5673 16.0606Z" fill="#F514A0"/>
</svg>
