<svg width="75" height="75" viewBox="0 0 75 75" fill="none" xmlns="http://www.w3.org/2000/svg">
<circle cx="37.5" cy="37.5" r="37.5" fill="#FEEBF7"/>
<path d="M24.4626 44.3952V57.4414C24.4626 57.6218 24.391 57.7948 24.2635 57.9223C24.1359 58.0499 23.9629 58.1215 23.7826 58.1216H17.0853C16.905 58.1216 16.7319 58.0499 16.6044 57.9224C16.4768 57.7948 16.4051 57.6218 16.4051 57.4414V44.3952C16.4051 44.2148 16.4768 44.0418 16.6044 43.9142C16.7319 43.7867 16.905 43.715 17.0853 43.715H23.7826C23.9629 43.715 24.1359 43.7867 24.2635 43.9142C24.391 44.0418 24.4626 44.2148 24.4626 44.3952ZM35.9616 35.2859H29.2643C29.0839 35.2859 28.9109 35.3576 28.7834 35.4851C28.6558 35.6127 28.5842 35.7857 28.5842 35.9661V57.4415C28.5842 57.5308 28.6018 57.6193 28.6359 57.7018C28.6701 57.7843 28.7202 57.8593 28.7834 57.9224C28.8465 57.9856 28.9215 58.0357 29.004 58.0699C29.0866 58.1041 29.175 58.1217 29.2643 58.1217H35.9616C36.0509 58.1217 36.1394 58.1041 36.2219 58.0699C36.3044 58.0357 36.3794 57.9856 36.4426 57.9224C36.5057 57.8593 36.5558 57.7843 36.59 57.7018C36.6242 57.6193 36.6418 57.5308 36.6418 57.4415V35.9659C36.6417 35.7856 36.5701 35.6126 36.4425 35.4851C36.315 35.3576 36.142 35.2859 35.9616 35.2859ZM48.1406 37.8034H41.4436C41.3543 37.8034 41.2658 37.821 41.1833 37.8552C41.1008 37.8894 41.0258 37.9395 40.9627 38.0026C40.8995 38.0658 40.8494 38.1408 40.8152 38.2233C40.7811 38.3058 40.7635 38.3942 40.7635 38.4836V57.4414C40.7635 57.5307 40.7811 57.6192 40.8152 57.7017C40.8494 57.7842 40.8995 57.8592 40.9627 57.9223C41.0258 57.9855 41.1008 58.0356 41.1833 58.0698C41.2658 58.104 41.3543 58.1216 41.4436 58.1216H48.1409C48.2302 58.1216 48.3187 58.104 48.4012 58.0698C48.4837 58.0356 48.5587 57.9855 48.6219 57.9224C48.6851 57.8592 48.7352 57.7842 48.7693 57.7017C48.8035 57.6192 48.8211 57.5307 48.8211 57.4414V38.4838C48.8212 38.3945 48.8036 38.306 48.7694 38.2234C48.7352 38.1408 48.6851 38.0658 48.6219 38.0026C48.5587 37.9394 48.4836 37.8893 48.4011 37.8551C48.3185 37.8209 48.23 37.8034 48.1406 37.8034ZM60.3197 25.9815H53.6223C53.442 25.9815 53.269 26.0532 53.1414 26.1807C53.0139 26.3083 52.9422 26.4813 52.9422 26.6617V57.4415C52.9422 57.5308 52.9598 57.6193 52.994 57.7018C53.0281 57.7843 53.0782 57.8593 53.1414 57.9224C53.2046 57.9856 53.2795 58.0357 53.3621 58.0699C53.4446 58.1041 53.533 58.1217 53.6223 58.1217H60.3197C60.409 58.1217 60.4974 58.1041 60.5799 58.0699C60.6625 58.0357 60.7374 57.9856 60.8006 57.9224C60.8638 57.8593 60.9139 57.7843 60.948 57.7018C60.9822 57.6193 60.9998 57.5308 60.9998 57.4415V26.6613C60.9997 26.481 60.928 26.3081 60.8005 26.1806C60.6729 26.0531 60.5 25.9815 60.3197 25.9815ZM42.6978 33.0034C42.8149 33.045 42.9412 33.0537 43.0629 33.0286C43.1846 33.0034 43.2971 32.9455 43.3881 32.8609L57.0998 20.1295V21.3107C57.0998 21.4911 57.1715 21.6641 57.299 21.7917C57.4266 21.9192 57.5996 21.9909 57.78 21.9909C57.9604 21.9909 58.1334 21.9192 58.2609 21.7917C58.3885 21.6641 58.4601 21.4911 58.4601 21.3107V18.5591C58.4601 18.3787 58.3885 18.2057 58.2609 18.0781C58.1334 17.9506 57.9604 17.8789 57.78 17.8789H55.0285C54.8481 17.8789 54.6751 17.9506 54.5476 18.0781C54.42 18.2057 54.3483 18.3787 54.3483 18.5591C54.3483 18.7395 54.42 18.9125 54.5476 19.04C54.6751 19.1676 54.8481 19.2392 55.0285 19.2392H56.0598L42.7645 31.5838L33.7654 28.3887C33.6803 28.3584 33.5899 28.3454 33.4996 28.3505C33.4094 28.3556 33.321 28.3786 33.2398 28.4183L13.382 38.1028C13.3018 38.142 13.23 38.1966 13.1708 38.2635C13.1116 38.3304 13.0662 38.4083 13.0371 38.4927C13.008 38.5772 12.9958 38.6665 13.0013 38.7557C13.0067 38.8448 13.0297 38.932 13.0688 39.0123C13.108 39.0926 13.1625 39.1644 13.2294 39.2236C13.2963 39.2828 13.3742 39.3282 13.4587 39.3573C13.5431 39.3864 13.6325 39.3985 13.7216 39.3931C13.8108 39.3876 13.898 39.3647 13.9783 39.3255L33.5792 29.766L42.6978 33.0034Z" fill="#F514A0"/>
</svg>
