<svg width="75" height="75" viewBox="0 0 75 75" fill="none" xmlns="http://www.w3.org/2000/svg">
<circle cx="37.5" cy="37.5" r="37.5" fill="#FEEBF7"/>
<g clip-path="url(#clip0_2141_505)">
<path d="M53.6016 25.0563C51.2695 24.7059 49.014 24.6278 46.8977 24.8244C43.9422 25.099 41.3547 25.9097 39.2071 27.2342C38.8766 27.4381 38.774 27.8713 38.9778 28.2018C39.1817 28.5323 39.6148 28.6349 39.9454 28.4311C44.4889 25.6288 50.3207 25.9851 53.3925 26.4469C53.7763 26.5046 54.1346 26.2401 54.1924 25.8561C54.25 25.4721 53.9856 25.1141 53.6016 25.0563Z" fill="#F514A0"/>
<path d="M53.6016 30.8845C51.2695 30.5341 49.014 30.4559 46.8977 30.6526C43.9422 30.9271 41.3547 31.7379 39.2071 33.0624C38.8766 33.2663 38.774 33.6994 38.9778 34.03C39.1107 34.2454 39.3411 34.364 39.577 34.364C39.703 34.364 39.8304 34.3303 39.9455 34.2593C44.489 31.457 50.3208 31.8133 53.3926 32.2751C53.7764 32.3327 54.1347 32.0683 54.1925 31.6843C54.25 31.3004 53.9856 30.9422 53.6016 30.8845Z" fill="#F514A0"/>
<path d="M53.6016 36.7087C51.2695 36.3582 49.014 36.2801 46.8977 36.4767C43.9422 36.7513 41.3547 37.5621 39.2071 38.8866C38.8766 39.0905 38.774 39.5236 38.9778 39.8542C39.1817 40.1846 39.6148 40.2873 39.9454 40.0835C44.4889 37.2811 50.3207 37.6374 53.3925 38.0993C53.7763 38.1569 54.1346 37.8924 54.1924 37.5084C54.25 37.1245 53.9856 36.7665 53.6016 36.7087Z" fill="#F514A0"/>
<path d="M53.6016 42.5368C51.2695 42.1864 49.014 42.1082 46.8977 42.3049C43.9422 42.5795 41.3547 43.3902 39.2071 44.7147C38.8766 44.9186 38.774 45.3518 38.9778 45.6823C39.1817 46.0128 39.6148 46.1155 39.9454 45.9116C44.4889 43.1093 50.3207 43.4656 53.3925 43.9274C53.7763 43.9851 54.1346 43.7206 54.1924 43.3366C54.25 42.9526 53.9856 42.5946 53.6016 42.5368Z" fill="#F514A0"/>
<path d="M20.6065 26.4469C23.6784 25.9851 29.5102 25.6289 34.0537 28.4312C34.3842 28.635 34.8174 28.5322 35.0213 28.2018C35.2251 27.8713 35.1225 27.4381 34.7919 27.2343C32.6443 25.9098 30.0568 25.099 27.1013 24.8244C24.9851 24.6278 22.7296 24.7058 20.3975 25.0563C20.0135 25.1141 19.7491 25.4722 19.8067 25.8562C19.8644 26.24 20.2228 26.5043 20.6065 26.4469Z" fill="#F514A0"/>
<path d="M20.6065 32.2751C23.6784 31.8133 29.5102 31.457 34.0537 34.2593C34.3843 34.4632 34.8174 34.3603 35.0213 34.03C35.2251 33.6994 35.1225 33.2663 34.7919 33.0624C32.6443 31.7379 30.0568 30.9271 27.1013 30.6525C24.9851 30.4559 22.7296 30.5339 20.3975 30.8845C20.0135 30.9422 19.7491 31.3003 19.8067 31.6843C19.8644 32.0682 20.2228 32.3329 20.6065 32.2751Z" fill="#F514A0"/>
<path d="M20.6065 38.0993C23.6784 37.6375 29.5102 37.2812 34.0537 40.0835C34.3842 40.2874 34.8174 40.1846 35.0213 39.8541C35.2251 39.5237 35.1225 39.0905 34.7919 38.8866C32.6443 37.5621 30.0568 36.7514 27.1013 36.4768C24.9851 36.2801 22.7296 36.3582 20.3975 36.7087C20.0135 36.7665 19.7491 37.1246 19.8067 37.5086C19.8644 37.8925 20.2228 38.1572 20.6065 38.0993Z" fill="#F514A0"/>
<path d="M20.6065 43.9274C23.6784 43.4657 29.5102 43.1093 34.0537 45.9116C34.3843 46.1155 34.8174 46.0127 35.0213 45.6823C35.2251 45.3518 35.1225 44.9186 34.7919 44.7147C32.6443 43.3902 30.0568 42.5795 27.1013 42.3049C24.9851 42.1083 22.7296 42.1863 20.3975 42.5368C20.0135 42.5946 19.7491 42.9527 19.8067 43.3367C19.8644 43.7206 20.2228 43.9851 20.6065 43.9274Z" fill="#F514A0"/>
<path d="M59.771 22.3814C59.1754 22.2343 58.2625 22.0313 57.1201 21.8457C57.0798 21.0596 56.5327 20.3958 55.7598 20.2139C52.8882 19.5391 43.233 17.834 37 23.4716C30.7671 17.834 21.1118 19.5389 18.2403 20.214C17.4673 20.3958 16.9203 21.0597 16.88 21.8457C15.7377 22.0312 14.8248 22.2343 14.2292 22.3814C13.5054 22.5599 13 23.2054 13 23.9511V52.5464C13 53.5856 13.9655 54.3557 14.9781 54.1225C16.4793 53.7771 19.5216 53.2083 23.0267 53.2603C27.2543 53.326 30.8624 54.2629 33.7506 56.0451C34.3034 56.3862 34.9405 56.5665 35.593 56.5665H38.4071C39.0596 56.5665 39.6967 56.3862 40.2495 56.0451C43.1377 54.2629 46.7458 53.326 50.9734 53.2603C54.4784 53.2081 57.5208 53.7771 59.022 54.1225C60.0326 54.3552 61.0001 53.5876 61.0001 52.5464V23.9511C61 23.2053 60.4945 22.5599 59.771 22.3814ZM59.5938 52.5464C59.5938 52.6818 59.4692 52.7823 59.3373 52.7521C57.774 52.3923 54.6074 51.7977 50.9516 51.8541C46.4672 51.9238 42.618 52.9312 39.5111 54.8483C39.1805 55.0523 38.7987 55.1601 38.4072 55.1601H35.5931C35.2015 55.1601 34.8198 55.0523 34.4891 54.8483C31.3822 52.9313 27.533 51.9239 23.0485 51.8541C19.3948 51.7978 16.2261 52.3923 14.6628 52.7521C14.5302 52.7822 14.4063 52.6812 14.4063 52.5464V23.9511C14.4063 23.8539 14.472 23.7698 14.5661 23.7466C15.0953 23.6159 15.8873 23.439 16.8762 23.2717V26.8831C16.8762 27.2715 17.191 27.5862 17.5793 27.5862C17.9676 27.5862 18.2824 27.2715 18.2824 26.8831V21.9382C18.2824 21.7678 18.3976 21.6215 18.5623 21.5828C21.2994 20.9395 30.587 19.29 36.297 24.7391V51.6351C36.2811 51.6239 36.2651 51.6133 36.2497 51.6012C30.3663 46.9966 22.035 48.1543 18.7261 48.8661C18.4968 48.9149 18.2824 48.7425 18.2824 48.509V30.158C18.2824 29.7696 17.9676 29.4549 17.5793 29.4549C17.191 29.4549 16.8762 29.7696 16.8762 30.158V48.5091C16.8762 49.6384 17.9179 50.4785 19.0218 50.241C28.3734 48.2299 33.579 51.2968 35.383 52.7087C36.3352 53.4539 37.665 53.454 38.6173 52.7087C40.4214 51.2966 45.6271 48.2298 54.9785 50.241C56.083 50.4785 57.1242 49.6381 57.1242 48.5091V42.0702C57.1242 41.6818 56.8095 41.3671 56.4211 41.3671C56.0327 41.3671 55.7179 41.6818 55.7179 42.0702V48.5091C55.7179 48.7428 55.5033 48.9149 55.2743 48.8662C51.9653 48.1545 43.6341 46.9967 37.7508 51.6013C37.7354 51.6134 37.7193 51.624 37.7034 51.6352V24.7392C43.4129 19.2901 52.701 20.9394 55.4377 21.5828C55.6026 21.6215 55.7177 21.7678 55.7177 21.9382V38.7957C55.7177 39.1841 56.0324 39.4988 56.4208 39.4988C56.8092 39.4988 57.1239 39.1841 57.1239 38.7957V23.2718C58.1128 23.4391 58.9048 23.616 59.4341 23.7467C59.5281 23.7699 59.5938 23.854 59.5938 23.9512V52.5464Z" fill="#F514A0"/>
</g>
<defs>
<clipPath id="clip0_2141_505">
<rect width="48" height="48" fill="white" transform="translate(13 14)"/>
</clipPath>
</defs>
</svg>
