<svg width="75" height="75" viewBox="0 0 75 75" fill="none" xmlns="http://www.w3.org/2000/svg">
<circle cx="37.5" cy="37.5" r="37.5" fill="#FEEBF7"/>
<path d="M53.8592 23.4333C53.8611 23.231 53.7828 23.0362 53.6415 22.8913L45.9748 15.2246C45.8306 15.0824 45.6353 15.004 45.4328 15.0069V15H22.4328C21.1625 15 20.1328 16.0297 20.1328 17.3V58.7C20.1328 59.9703 21.1625 61 22.4328 61H51.5661C52.8364 61 53.8661 59.9703 53.8661 58.7V23.4333H53.8592ZM46.1995 17.6174L51.2487 22.6667H46.9661C46.5428 22.6667 46.1995 22.3234 46.1995 21.9V17.6174ZM52.3328 58.7C52.3328 59.1234 51.9895 59.4667 51.5661 59.4667H22.4328C22.0094 59.4667 21.6661 59.1234 21.6661 58.7V17.3C21.6661 16.8766 22.0094 16.5333 22.4328 16.5333H44.6661V21.9C44.6661 23.1703 45.6959 24.2 46.9661 24.2H52.3328V58.7Z" fill="#F514A0"/>
<path d="M27.8 35.6992C26.5297 35.6992 25.5 36.7289 25.5 37.9992C25.5 39.2695 26.5297 40.2992 27.8 40.2992C29.0703 40.2992 30.1 39.2695 30.1 37.9992C30.1 36.7289 29.0703 35.6992 27.8 35.6992ZM27.8 38.7659C27.3766 38.7659 27.0333 38.4226 27.0333 37.9992C27.0333 37.5758 27.3766 37.2326 27.8 37.2326C28.2234 37.2326 28.5667 37.5758 28.5667 37.9992C28.5667 38.4226 28.2234 38.7659 27.8 38.7659Z" fill="#F514A0"/>
<path d="M48.4993 37.2344H33.166V38.7677H48.4993V37.2344Z" fill="#F514A0"/>
<path d="M27.8 28.0352C26.5297 28.0352 25.5 29.0649 25.5 30.3352C25.5 31.6054 26.5297 32.6352 27.8 32.6352C29.0703 32.6352 30.1 31.6054 30.1 30.3352C30.1 29.0649 29.0703 28.0352 27.8 28.0352ZM27.8 31.1018C27.3766 31.1018 27.0333 30.7585 27.0333 30.3352C27.0333 29.9118 27.3766 29.5685 27.8 29.5685C28.2234 29.5685 28.5667 29.9118 28.5667 30.3352C28.5667 30.7585 28.2234 31.1018 27.8 31.1018Z" fill="#F514A0"/>
<path d="M48.4993 29.5664H33.166V31.0997H48.4993V29.5664Z" fill="#F514A0"/>
<path d="M27.8 43.3672C26.5297 43.3672 25.5 44.3969 25.5 45.6672C25.5 46.9375 26.5297 47.9672 27.8 47.9672C29.0703 47.9672 30.1 46.9375 30.1 45.6672C30.1 44.3969 29.0703 43.3672 27.8 43.3672ZM27.8 46.4339C27.3766 46.4339 27.0333 46.0906 27.0333 45.6672C27.0333 45.2438 27.3766 44.9005 27.8 44.9005C28.2234 44.9005 28.5667 45.2438 28.5667 45.6672C28.5667 46.0906 28.2234 46.4339 27.8 46.4339Z" fill="#F514A0"/>
<path d="M48.4993 44.8984H33.166V46.4318H48.4993V44.8984Z" fill="#F514A0"/>
<path d="M27.8 51.0352C26.5297 51.0352 25.5 52.0649 25.5 53.3352C25.5 54.6054 26.5297 55.6352 27.8 55.6352C29.0703 55.6352 30.1 54.6054 30.1 53.3352C30.1 52.0649 29.0703 51.0352 27.8 51.0352ZM27.8 54.1018C27.3766 54.1018 27.0333 53.7585 27.0333 53.3352C27.0333 52.9118 27.3766 52.5685 27.8 52.5685C28.2234 52.5685 28.5667 52.9118 28.5667 53.3352C28.5667 53.7585 28.2234 54.1018 27.8 54.1018Z" fill="#F514A0"/>
<path d="M48.4993 52.5664H33.166V54.0997H48.4993V52.5664Z" fill="#F514A0"/>
</svg>
